<svg preserveAspectRatio="xMidYMid meet" data-bbox="2.24 20.262 393.483 121.242" xmlns="http://www.w3.org/2000/svg" viewBox="2.24 20.262 393.483 121.242" height="147" width="398" data-type="color" role="presentation" aria-hidden="true" aria-label="">
    <g>
        <path fill="#FEF200" d="M35.354 36.82V51.1c0 5.588-3.208 7.243-4.863 7.45v2.07c1.552.207 4.863 1.863 4.863 7.45v18.42c0 10.349-2.07 16.558-10.348 16.558H2.757c-.31 0-.517-.207-.517-.518V20.78c0-.311.207-.518.517-.518h22.249c8.279 0 10.348 6.209 10.348 16.557Zm-19.661-4.14v20.179H21.9v-20.18h-6.208ZM21.9 90.63V66.312h-6.208V90.63H21.9Zm42.982 12.418H40.047c-.31 0-.517-.207-.517-.518V20.78c0-.311.207-.518.517-.518h12.418c.31 0 .518.207.518.517V90.63h11.9c.31 0 .517.207.517.517v11.383c0 .311-.207.518-.517.518Zm35.292-82.269 4.553 81.751c0 .414-.207.518-.518.518H91.793c-.31 0-.518-.104-.518-.518L90.24 81.834h-7.243l-1.035 20.696c0 .414-.207.518-.518.518H69.026c-.31 0-.517-.104-.517-.518l4.553-81.75c0-.415.207-.518.518-.518h26.077c.31 0 .518.103.518.517Zm-14.591 11.9L83.72 69.417h5.795L87.653 32.68h-2.07ZM127 55.757V32.68h-6.209v57.95H127V63c0-.31.207-.517.517-.517h12.418c.311 0 .518.207.518.517v23.49c0 10.349-2.07 16.558-10.349 16.558h-12.418c-8.278 0-10.348-6.21-10.348-16.557V36.819c0-10.348 2.07-16.557 10.348-16.557h12.418c8.279 0 10.349 6.209 10.349 16.557v18.937c0 .31-.207.518-.518.518h-12.418c-.31 0-.517-.207-.517-.518Zm30.564 47.292h-12.418c-.311 0-.518-.207-.518-.518V20.78c0-.311.207-.518.518-.518h12.418c.31 0 .517.207.517.517v34.15h2.07l6.623-34.15c.103-.31.31-.517.62-.517h12.832c.311 0 .518.207.414.517l-8.485 40.876 8.485 40.875c.104.414-.103.518-.414.518h-12.832c-.31 0-.517-.207-.62-.518l-6.623-34.149h-2.07v34.149c0 .311-.207.518-.517.518Zm49.416 0h-12.417c-.311 0-.518-.207-.518-.518V20.78c0-.311.207-.518.518-.518h18.626c.311 0 .518.103.518.517l3.001 32.597h2.069l3.001-32.597c0-.414.207-.517.518-.517h18.627c.31 0 .517.207.517.517v81.751c0 .311-.207.518-.517.518h-12.418c-.311 0-.518-.207-.518-.518V57.516h-2.069l-4.036 45.014c0 .414-.207.518-.517.518h-7.244c-.311 0-.518-.104-.518-.518l-4.035-45.014h-2.07v45.014c0 .311-.207.518-.518.518Zm69.235-82.269 4.553 81.751c0 .414-.207.518-.517.518h-12.418c-.31 0-.517-.104-.517-.518l-1.035-20.696h-7.244l-1.035 20.696c0 .414-.207.518-.517.518h-12.418c-.311 0-.518-.104-.518-.518l4.554-81.75c0-.415.207-.518.517-.518h26.078c.31 0 .517.103.517.517Zm-14.591 11.9-1.863 36.737h5.795l-1.862-36.736h-2.07Zm35.196 70.369h-12.418c-.31 0-.517-.207-.517-.518V20.78c0-.311.207-.518.517-.518h12.418c.311 0 .518.207.621.517l7.14 34.667h2.07V20.779c0-.31.207-.517.518-.517h13.452c.311 0 .518.207.518.517v81.751c0 .311-.207.518-.518.518h-12.004c-.31 0-.517-.207-.621-.518l-8.589-38.806h-2.069v38.806c0 .311-.207.518-.518.518Zm52.299-82.786c6.106 0 9.314 6.83 9.314 15.212v13.763c0 .31-.207.517-.518.517h-12.418c-.31 0-.517-.207-.517-.517V32.68h-6.209v57.432h6.209V67.346h-2.587c-.31 0-.517-.207-.517-.517V54.411c0-.31.207-.517.517-.517h15.522c.311 0 .518.207.518.517v48.119c0 .311-.207.518-.518.518h-12.314c-.311 0-.621-.104-.621-.518v-9.313h-2.07c-.931 3.001-2.69 10.348-9.417 10.348-5.484 0-8.175-5.174-8.175-14.177V35.474c0-8.382 3.208-15.212 9.314-15.212h14.487Zm36.256 0c8.278 0 10.348 6.209 10.348 16.557v49.672c0 10.348-2.07 16.557-10.348 16.557h-12.418c-8.279 0-10.349-6.21-10.349-16.557V36.819c0-10.348 2.07-16.557 10.349-16.557h12.418Zm-3.105 70.368V32.68h-6.209v57.95h6.209Z" data-color="1"></path>
        <path fill="#FEF200" d="M5.272 123.785h7.746c1.531 0 2.766.434 3.703 1.301.938.859 1.407 2.07 1.407 3.633 0 1.343-.419 2.515-1.254 3.515-.836.993-2.121 1.489-3.856 1.489H7.604V141H5.272v-17.215Zm10.5 4.945c0-1.265-.469-2.125-1.406-2.578-.516-.242-1.223-.363-2.121-.363h-4.64v5.965h4.64c1.047 0 1.894-.223 2.543-.668.656-.445.984-1.231.984-2.356Zm38.97 2.942c1.093 0 1.956-.219 2.589-.656.64-.438.96-1.227.96-2.368 0-1.226-.444-2.062-1.335-2.507-.477-.235-1.113-.352-1.91-.352H49.35v5.883h5.391Zm-7.724-7.887h7.97c1.312 0 2.394.192 3.245.574 1.617.735 2.426 2.09 2.426 4.067 0 1.031-.215 1.875-.645 2.531-.421.656-1.015 1.184-1.78 1.582.671.273 1.175.633 1.511 1.078.344.445.535 1.168.574 2.168l.082 2.309c.024.656.078 1.144.164 1.465.14.546.39.898.75 1.054V141h-2.86a2.15 2.15 0 0 1-.187-.574c-.046-.235-.086-.688-.117-1.36l-.14-2.871c-.055-1.125-.473-1.879-1.254-2.261-.446-.211-1.145-.317-2.098-.317H49.35V141h-2.332v-17.215Zm50.173-.469c3.039 0 5.289.977 6.75 2.93 1.14 1.524 1.711 3.473 1.711 5.848 0 2.57-.653 4.707-1.957 6.41-1.532 2-3.715 3-6.551 3-2.649 0-4.73-.875-6.246-2.625-1.352-1.688-2.028-3.82-2.028-6.399 0-2.328.578-4.32 1.735-5.976 1.484-2.125 3.68-3.188 6.586-3.188Zm.234 16.102c2.055 0 3.539-.734 4.453-2.203.922-1.477 1.383-3.172 1.383-5.086 0-2.024-.531-3.652-1.594-4.887-1.054-1.234-2.5-1.851-4.336-1.851-1.781 0-3.234.613-4.36 1.839-1.124 1.219-1.687 3.02-1.687 5.403 0 1.906.48 3.515 1.442 4.828.969 1.305 2.535 1.957 4.699 1.957Zm43.305-.41c.789 0 1.438-.082 1.945-.246.907-.305 1.649-.891 2.227-1.758.461-.695.793-1.586.996-2.672.117-.648.176-1.25.176-1.805 0-2.132-.426-3.789-1.278-4.968-.843-1.18-2.207-1.77-4.089-1.77h-4.137v13.219h4.16Zm-6.504-15.223h6.973c2.367 0 4.203.84 5.508 2.52 1.164 1.515 1.746 3.457 1.746 5.824 0 1.828-.344 3.48-1.032 4.957-1.211 2.609-3.293 3.914-6.246 3.914h-6.949v-17.215Zm45.45 0v10.641c0 1.25.234 2.289.703 3.117.695 1.25 1.867 1.875 3.515 1.875 1.977 0 3.321-.676 4.032-2.027.382-.735.574-1.723.574-2.965v-10.641h2.367v9.668c0 2.117-.285 3.746-.855 4.887-1.047 2.078-3.024 3.117-5.93 3.117-2.906 0-4.879-1.039-5.918-3.117-.57-1.141-.856-2.77-.856-4.887v-9.668h2.368Zm47.746-.469c2.18 0 3.871.575 5.074 1.723 1.203 1.149 1.871 2.453 2.004 3.914h-2.273c-.258-1.109-.774-1.988-1.547-2.637-.766-.648-1.844-.972-3.235-.972-1.695 0-3.066.597-4.113 1.793-1.039 1.187-1.558 3.011-1.558 5.472 0 2.016.468 3.653 1.406 4.911.945 1.25 2.351 1.875 4.219 1.875 1.718 0 3.027-.661 3.925-1.981.477-.695.832-1.609 1.067-2.742h2.273c-.203 1.812-.875 3.332-2.015 4.558-1.368 1.477-3.211 2.215-5.532 2.215-2 0-3.679-.605-5.039-1.816-1.789-1.602-2.683-4.074-2.683-7.418 0-2.539.672-4.621 2.015-6.246 1.453-1.766 3.457-2.649 6.012-2.649Zm48.297.469v2.051h-5.801V141h-2.367v-15.164h-5.801v-2.051h13.969Zm28.352 0h2.356V141h-2.356v-17.215Zm39.262-.469c3.039 0 5.289.977 6.75 2.93 1.141 1.524 1.711 3.473 1.711 5.848 0 2.57-.652 4.707-1.957 6.41-1.531 2-3.715 3-6.551 3-2.648 0-4.73-.875-6.246-2.625-1.351-1.688-2.027-3.82-2.027-6.399 0-2.328.578-4.32 1.734-5.976 1.485-2.125 3.68-3.188 6.586-3.188Zm.235 16.102c2.054 0 3.539-.734 4.453-2.203.922-1.477 1.382-3.172 1.382-5.086 0-2.024-.531-3.652-1.593-4.887-1.055-1.234-2.5-1.851-4.336-1.851-1.781 0-3.235.613-4.36 1.839-1.125 1.219-1.687 3.02-1.687 5.403 0 1.906.48 3.515 1.441 4.828.969 1.305 2.535 1.957 4.7 1.957Zm36.695-15.633h2.754l8.695 13.945v-13.945h2.215V141h-2.613l-8.824-13.934V141h-2.227v-17.215Z" data-color="1"></path>
    </g>
</svg>