<svg xmlns="http://www.w3.org/2000/svg" width="84" height="40" viewBox="0 0 84 40" fill="none">
<path d="M1.92584 14.4367C1.92584 10.1549 4.70902 8.44216 8.13448 8.44216C11.5905 8.44216 14.3737 10.4301 14.3737 14.559V16.18H10.1225V14.6508C10.1225 12.9687 9.35785 12.204 8.13448 12.204C7.00285 12.204 6.20766 12.9075 6.20766 14.2226C6.20766 15.7518 7.12519 16.547 8.53207 17.5869L11.1623 19.5137C13.1197 20.9818 14.6795 22.8168 14.6795 25.7835C14.6795 30.0348 11.7434 32.1757 8.16506 32.1757C4.58668 32.1757 1.68116 29.9736 1.68116 26.0282V24.132H5.96298V25.8141C5.96298 27.4351 6.84993 28.4138 8.16506 28.4138C9.51077 28.4138 10.3671 27.6186 10.3671 26.3035C10.3671 24.6519 9.38844 23.7344 7.92038 22.6333L5.41246 20.7677C3.39389 19.2996 1.92584 17.4951 1.92584 14.4367ZM22.7034 32.1757C18.2381 32.1757 15.5161 29.5454 15.5161 24.1931V16.3941C15.5161 11.0724 18.2381 8.44216 22.7034 8.44216C27.1687 8.44216 29.8908 11.0724 29.8908 16.3941V24.1931C29.8908 29.5454 27.1687 32.1757 22.7034 32.1757ZM22.7034 28.2609C24.4161 28.2609 25.456 27.2822 25.456 24.2849V16.3329C25.456 13.3357 24.4161 12.357 22.7034 12.357C21.0213 12.357 19.9508 13.3357 19.9508 16.3329V24.2849C19.9508 27.2822 20.9907 28.2609 22.7034 28.2609ZM46.1101 8.83975V31.7781H39.3203L35.5278 11.8982V31.7781H31.7354V8.83975H38.5557L42.3176 28.4444V8.83975H46.1101ZM46.6558 31.7781L50.8153 8.83975H57.605L61.7951 31.7781H57.4215L56.6569 27.0987H51.7634L50.9988 31.7781H46.6558ZM52.4057 23.2756H56.0146L54.2102 12.204L52.4057 23.2756ZM62.3079 31.7781V8.83975H69.587C73.4406 8.83975 76.1932 10.9195 76.1932 14.8037V15.6907C76.1932 18.8409 74.3887 20.7065 71.7584 21.3794L76.8355 31.7781H71.789L66.712 20.4924V31.7781H62.3079ZM69.0976 12.6628H66.712V18.8103H69.0976C70.7492 18.8103 71.789 17.9233 71.789 15.7824V15.3848C71.789 13.3968 70.7492 12.6628 69.0976 12.6628Z" fill="#181618"/>
<path d="M79.662 15.4004C77.8677 15.4004 76.5628 13.9732 76.5628 12.2604C76.5628 10.5205 77.8677 9.12043 79.662 9.12043C81.4563 9.12043 82.7612 10.5205 82.7612 12.2604C82.7612 13.9732 81.4563 15.4004 79.662 15.4004ZM79.662 9.60978C78.1804 9.60978 77.0929 10.7924 77.0929 12.2604C77.0929 13.7285 78.1804 14.9111 79.662 14.9111C81.1437 14.9111 82.2311 13.7285 82.2311 12.2604C82.2311 10.806 81.1437 9.60978 79.662 9.60978ZM78.4386 13.8916V10.6293H79.8251C80.464 10.6293 80.967 10.8739 80.967 11.6216C80.967 12.0973 80.6407 12.4507 80.1786 12.5731L81.1301 13.8916H80.2329L79.363 12.6139H79.1455V13.8916H78.4386ZM79.8115 11.2545H79.1455V12.0022H79.8115C80.0834 12.0022 80.2737 11.8662 80.2737 11.6216C80.2737 11.3361 80.0834 11.2545 79.8115 11.2545Z" fill="#181618"/>
</svg>